:version 1.10
:name ASF
:units
  mass 1
  length 1
  angle deg
:documentation
  ASF file generated by Kaydara
:root
  axis xyz
  order  tx ty tz rx ry rz
  position 0 0 0
  orientation 0 0 0
:bonedata
  begin
    id 1
    name RightUpLegDummy
    direction -0.718183 -0.695806 0.00816078
    length 4.904
    axis 0 0 0 xyz
  end
  begin
    id 2
    name RightUpLeg
    direction -0.0736652 -0.994202 0.0783343
    length 17.4976
    axis -2.72909 -3.00389 -4.00133 xyz
    dof rx ry rz
  end
  begin
    id 3
    name RightLeg
    direction -0.0389037 -0.994596 -0.0962598
    length 16.5821
    axis 3.95836 -18.5909 -4.46993 xyz
    dof rx ry rz
  end
  begin
    id 4
    name RightFoot
    direction -0.311643 -0.412678 0.855906
    length 3.77069
    axis -1.99483 -18.8351 -3.27644 xyz
    dof rx ry rz
  end
  begin
    id 5
    name RightToes
    direction -0.317852 0.0389852 0.947339
    length 3.85082
    axis -2.00228 -18.1713 -3.25211 xyz
    dof rx ry rz
  end
  begin
    id 6
    name SpineDummy
    direction 8.3039e-015 1 4.44677e-016
    length 4.6813
    axis 0 0 0 xyz
  end
  begin
    id 7
    name Spine
    direction -0.000262373 0.999988 0.00493267
    length 10.1015
    axis -0.00246081 0.00062579 0.0150362 xyz
    dof rx ry rz
  end
  begin
    id 8
    name Spine1
    direction 0 0 0
    length 0
    axis -0.00349562 0.000650293 0.0196666 xyz
    dof rx ry rz
  end
  begin
    id 9
    name HEadDummy
    direction -0.000343232 0.999999 0.00123745
    length 3.43865
    axis -0.00349562 0.000650293 0.0196666 xyz
  end
  begin
    id 10
    name HEad
    direction -0.0461221 0.980933 0.188796
    length 5.12695
    axis -0.00351404 -7.04812 0.0199272 xyz
    dof rx ry rz
  end
  begin
    id 11
    name LeftShoulder1Dummy
    direction 0.998904 -0.0399089 -0.0244534
    length 3.5433
    axis -0.00349562 0.000650293 0.0196666 xyz
  end
  begin
    id 12
    name LeftShoulder1
    direction 0.99951 1.64443e-005 0.0312999
    length 4.05031
    axis -0.00349562 0.000650293 0.0196666 xyz
    dof rx ry rz
  end
  begin
    id 13
    name LeftArm
    direction 0.984791 0.0515299 0.165927
    length 12.9126
    axis -64.823 -10.7743 5.20463 xyz
    dof rx ry rz
  end
  begin
    id 14
    name LeftForeArm
    direction 0.984968 0.0534808 0.16425
    length 10.8596
    axis -30.0462 -7.70601 1.87451 xyz
    dof rx ry rz
  end
  begin
    id 15
    name LeftHand
    direction 0.975871 0.0289682 0.216418
    length 6.62295
    axis -20.1348 -6.98077 1.86072 xyz
    dof rx ry rz
  end
  begin
    id 16
    name RightShoulderDummy
    direction -0.998877 -0.0405946 -0.0244307
    length 3.5433
    axis -0.00349562 0.000650293 0.0196666 xyz
  end
  begin
    id 17
    name RightShoulder
    direction -0.998933 -0.0249743 -0.0388558
    length 4.05031
    axis -0.0205316 -4.02113 1.41395 xyz
    dof rx ry rz
  end
  begin
    id 18
    name RightArm
    direction -0.997559 0.068664 0.0127103
    length 12.9638
    axis -67.3882 1.84188 -6.15987 xyz
    dof rx ry rz
  end
  begin
    id 19
    name RightForeArm
    direction -0.991508 0.0912848 0.0926241
    length 10.8312
    axis -22.1975 3.41087 -4.28711 xyz
    dof rx ry rz
  end
  begin
    id 20
    name RightHand
    direction -0.989262 0.0600788 0.133232
    length 6.57864
    axis -12.2911 2.17515 -4.39675 xyz
    dof rx ry rz
  end
  begin
    id 21
    name LeftUpLegDummy
    direction 0.718183 -0.695806 0.00816078
    length 4.904
    axis 0 0 0 xyz
  end
  begin
    id 22
    name LeftUpLeg
    direction 0.0831398 -0.99469 0.0606531
    length 17.4976
    axis -1.71016 2.29552 4.63832 xyz
    dof rx ry rz
  end
  begin
    id 23
    name LeftLeg
    direction 0.0498442 -0.991778 -0.117862
    length 16.5821
    axis 5.13757 15.5727 5.13348 xyz
    dof rx ry rz
  end
  begin
    id 24
    name LeftFoot
    direction 0.269026 -0.433896 0.85986
    length 3.77069
    axis -0.576502 15.6961 4.10267 xyz
    dof rx ry rz
  end
  begin
    id 25
    name LeftToes
    direction 0.277311 0.0251143 0.960452
    length 3.85048
    axis -0.576502 15.6961 4.10267 xyz
    dof rx ry rz
  end
:hierarchy
  begin
    root RightUpLegDummy SpineDummy LeftUpLegDummy
    RightUpLegDummy RightUpLeg
    RightUpLeg RightLeg
    RightLeg RightFoot
    RightFoot RightToes
    SpineDummy Spine
    Spine Spine1
    Spine1 HEadDummy LeftShoulder1Dummy RightShoulderDummy
    HEadDummy HEad
    LeftShoulder1Dummy LeftShoulder1
    LeftShoulder1 LeftArm
    LeftArm LeftForeArm
    LeftForeArm LeftHand
    RightShoulderDummy RightShoulder
    RightShoulder RightArm
    RightArm RightForeArm
    RightForeArm RightHand
    LeftUpLegDummy LeftUpLeg
    LeftUpLeg LeftLeg
    LeftLeg LeftFoot
    LeftFoot LeftToes
  end

:SAMPLES-PER-SECOND 30
:FULLY-SPECIFIED
:DEGREES
138
root  2.6091 18.9376 -64.7598 43.7271 -22.6737 -9.55226
RightUpLeg  -34.3704 10.1487 7.174
RightLeg  107.997 17.7031 -5.55132
RightFoot  -43.1808 2.38035 8.32126
RightToes  5.82077e-011 -3.18055e-015 -2.98177e-016
Spine  52.7239 5.84499 -1.82109
Spine1  -13.27 6.36941 -23.7671
HEad  -32.1001 -4.37041 6.42782
LeftShoulder1  -3.88251e-019 9.70628e-020 -3.87848e-018
LeftArm  -5.58446 -7.52373 -64.3749
LeftForeArm  28.471 -6.1072 -6.69616
LeftHand  -13.9701 -11.4525 81.8952
RightShoulder  3.29224 8.9731 14.7058
RightArm  -2.71176 26.8664 65.2618
RightForeArm  -1.01888 12.9956 -11.1296
RightHand  -8.2991 8.24365 -63.1227
LeftUpLeg  -61.3456 18.5138 -11.2252
LeftLeg  124.877 -28.8142 19.6295
LeftFoot  -25.0277 -1.59254 -14.4268
LeftToes  1.39127e-010 -3.60802e-011 -7.31315e-011
139
root  2.67398 18.9411 -63.9184 46.0378 -23.4407 -11.7289
RightUpLeg  -34.074 11.6199 7.21717
RightLeg  105.323 17.5079 -5.73074
RightFoot  -42.5514 2.37124 8.48223
RightToes  5.82077e-011 -3.18055e-015 -2.98177e-016
Spine  51.0405 5.49658 -2.04498
Spine1  -13.6838 5.84759 -22.9602
HEad  -32.3625 -1.06 5.44081
LeftShoulder1  -3.88251e-019 9.70628e-020 -3.87848e-018
LeftArm  -5.69508 -2.29387 -61.0345
LeftForeArm  27.8421 -8.245 -6.4829
LeftHand  -13.6619 -11.4713 80.5484
RightShoulder  3.10261 9.14611 13.2807
RightArm  -2.14148 24.2533 69.6776
RightForeArm  0.321527 13.8563 -10.8465
RightHand  -9.0679 8.86272 -65.4177
LeftUpLeg  -59.911 20.3792 -11.506
LeftLeg  121.954 -28.8517 21.4895
LeftFoot  -25.0653 -1.80939 -16.483
LeftToes  1.39127e-010 -3.60802e-011 -7.31315e-011
140
root  2.73187 19.0003 -63.0599 47.3619 -22.2796 -10.2633
RightUpLeg  -33.8881 9.45772 5.88574
RightLeg  102.462 17.2688 -5.85841
RightFoot  -41.9896 2.36237 8.6284
RightToes  5.82077e-011 -3.18055e-015 -2.98177e-016
Spine  49.9026 4.23249 -2.50943
Spine1  -13.832 4.12042 -19.8676
HEad  -32.9064 1.60941 4.69742
LeftShoulder1  -3.88251e-019 9.70628e-020 -3.87848e-018
LeftArm  -4.61056 2.6323 -59.1235
LeftForeArm  26.5472 -11.0918 -6.72684
LeftHand  -13.0634 -11.5695 77.6664
RightShoulder  3.01585 9.23151 12.6272
RightArm  0.763341 23.6775 72.7217
RightForeArm  0.608274 12.8188 -9.90467
RightHand  -9.64669 9.19849 -67.4542
LeftUpLeg  -59.4112 18.0639 -13.2296
LeftLeg  118.447 -28.4752 23.4342
LeftFoot  -24.4342 -1.85816 -17.9071
LeftToes  1.39127e-010 -3.60802e-011 -7.31315e-011
141
root  2.76171 18.9743 -62.2005 48.6995 -19.2845 -6.21645
RightUpLeg  -34.0327 4.36163 4.25997
RightLeg  99.6121 17.0139 -5.91547
RightFoot  -41.6761 2.33612 8.62909
RightToes  5.82077e-011 -3.18055e-015 -2.98177e-016
Spine  47.9646 2.23091 -2.5001
Spine1  -13.3589 1.81724 -15.3821
HEad  -33.2095 3.28261 4.62073
LeftShoulder1  -3.88251e-019 9.70628e-020 -3.87848e-018
LeftArm  -2.92353 7.01899 -58.8918
LeftForeArm  23.6178 -14.5283 -6.61227
LeftHand  -12.4822 -11.6497 74.8563
RightShoulder  3.15037 9.20915 13.4862
RightArm  3.53071 23.8509 74.1165
RightForeArm  2.23393 11.463 -8.67026
RightHand  -10.1873 9.51393 -69.2389
LeftUpLeg  -60.4029 12.6865 -15.3773
LeftLeg  115.575 -28.1004 25.11
LeftFoot  -22.4327 -1.59253 -18.5716
LeftToes  1.39127e-010 -3.60802e-011 -7.31315e-011
142
root  2.89123 18.8162 -61.343 50.8317 -14.474 -2.27281
RightUpLeg  -34.1559 -2.10869 4.24797
RightLeg  96.8097 16.6253 -5.13176
RightFoot  -41.7437 2.31448 8.51808
RightToes  5.82077e-011 -3.18055e-015 -2.98177e-016
Spine  44.2783 -0.932678 0.280461
Spine1  -12.1193 -0.469831 -11.7904
HEad  -32.8111 4.17858 4.69022
LeftShoulder1  -3.88251e-019 9.70628e-020 -3.87848e-018
LeftArm  0.673031 11.6502 -59.6417
LeftForeArm  17.5697 -19.0281 -4.30194
LeftHand  -12.371 -11.944 73.3841
RightShoulder  3.40708 9.21767 15.0469
RightArm  4.1682 22.6831 74.2262
RightForeArm  5.61005 11.6838 -8.24943
RightHand  -10.6265 9.88682 -70.1949
LeftUpLeg  -62.0367 6.31649 -15.8244
LeftLeg  113.792 -27.8684 26.2451
LeftFoot  -20.9821 -1.36113 -18.7387
LeftToes  1.39127e-010 -3.60802e-011 -7.31315e-011
